<?xml version="1.0" encoding="utf-8"?>
<!-- Generator: Adobe Illustrator 23.0.3, SVG Export Plug-In . SVG Version: 6.00 Build 0)  -->
<svg version="1.1" id="Layer_1" xmlns="http://www.w3.org/2000/svg" xmlns:xlink="http://www.w3.org/1999/xlink" x="0px" y="0px"
	 viewBox="0 0 60 60" style="enable-background:new 0 0 60 60;" xml:space="preserve">
<path d="M50.7,42.7c-6.2,0-12.5,0-18.7,0c-2,0-3.6-1.1-4.4-2.9c-0.8-1.9-0.5-3.7,0.8-5.2c1-1.2,2.4-1.7,4-1.7c3.7,0,7.4,0,11.1,0
	c0.8,0,1.3-0.5,1.3-1.1c0-0.7-0.5-1.1-1.3-1.1c-3.8,0-7.7,0-11.5,0c-4.5,0-7.9,4.4-6.8,8.8c0.8,3.3,3.6,5.5,7.1,5.5
	c6.2,0,12.5,0,18.7,0c1.9,0,3.4,0.9,4.3,2.6c0.9,1.7,0.8,3.4-0.2,5c-1,1.6-2.6,2.3-4.5,2.3c-10.9,0-21.8,0-32.7,0
	c-0.3,0-0.6,0-0.8,0.1c-0.5,0.1-0.9,0.6-0.8,1.1c0,0.5,0.4,1,0.9,1c0.2,0,0.4,0,0.6,0c5.5,0,11.1,0,16.6,0c5.6,0,11.1,0,16.7,0
	c4.5,0,7.9-4.4,6.8-8.8C57,44.9,54.2,42.7,50.7,42.7z M7.3,23.5c0.1,0,0.2-0.1,0.3-0.1c4.6-1.5,9.2-3,13.8-4.6
	c0.1,0,0.3-0.1,0.5-0.1c-0.9,1.5-1.8,2.8-2.6,4.2c-0.3,0.5-0.3,0.9,0,1.2c0.3,0.3,0.7,0.3,1.2,0.1c0.7-0.4,1.5-0.8,2.2-1.2
	c0.4-0.2,0.7-0.5,1-0.8c2.6-2.7,5.2-5.4,7.7-8.1c0.2-0.2,0.5-0.5,0.8-0.6c1.8-1,3.7-1.9,5.5-2.9c1.8-1,3.7-1.9,5.5-3
	c0.8-0.5,1.6-1.1,2.1-2c0.5-0.9,0.3-1.8-0.6-2.3C44.2,3.2,43.5,3,42.9,3c-1,0-2.1,0.1-3.1,0.2c-0.7,0.1-1.5,0-2.2,0.2
	c-1.5,0.6-3,1.2-4.4,1.9c-6.7,3.4-13.3,6.9-19.9,10.3c-0.3,0.1-0.5,0.2-0.8,0c-2.2-1.2-4.4-2.3-6.6-3.4c-1.7-0.9-1.3-0.9-3,0
	c-0.3,0.2-0.6,0.5-0.9,0.8c0,0.2,0,0.3,0,0.5c0.2,0.2,0.3,0.5,0.5,0.7c1.7,2.1,3.3,4.1,5,6.2c0.1,0.1,0.2,0.2,0.3,0.4
	c-0.2,0.1-0.4,0.2-0.6,0.3c-0.2,0.1-0.4,0.2-0.6,0.3C6,21.9,5.8,22.4,6,22.9C6.3,23.4,6.8,23.6,7.3,23.5z M40.4,15.8
	c0,4.9,8.8,17.3,8.8,17.3S58,20.7,58,15.8c0-4.9-3.9-8.8-8.8-8.8S40.4,10.9,40.4,15.8z M49.2,12.2c2,0,3.6,1.6,3.6,3.6
	s-1.6,3.6-3.6,3.6s-3.6-1.6-3.6-3.6S47.2,12.2,49.2,12.2z M12.8,37.5c-3.6,0-6.6,3-6.6,6.6c0,3.6,6.6,12.9,6.6,12.9
	s6.6-9.3,6.6-12.9C19.4,40.4,16.5,37.5,12.8,37.5z M12.8,46.8c-1.5,0-2.7-1.2-2.7-2.7c0-1.5,1.2-2.7,2.7-2.7s2.7,1.2,2.7,2.7
	C15.6,45.6,14.4,46.8,12.8,46.8z"/>
</svg>
